<?xml version="1.0" encoding="utf-8"?>
<svg xmlns="http://www.w3.org/2000/svg" height="512pt" version="1.1" viewBox="0 0 512 512" width="512pt">
<path d="M 0.00 0.00 L 512.00 0.00 L 512.00 512.00 L 0.00 512.00 L 0.00 0.00 Z" fill="transparent" opacity="1.00" stroke="transparent" stroke-width="0.25"/>
<path d="M 182.85 106.78 C 221.10 82.10 274.42 82.79 311.41 109.64 C 336.19 127.06 353.25 156.33 353.13 186.95 C 353.33 193.41 348.01 198.47 348.43 204.92 C 348.12 208.61 349.73 212.03 351.73 215.02 C 358.27 225.17 365.32 234.98 372.08 244.98 C 374.56 248.16 374.54 253.60 371.01 256.02 C 367.54 258.73 362.72 257.02 358.93 258.89 C 355.85 261.28 354.98 265.45 355.40 269.14 C 355.79 272.05 359.02 273.93 358.60 277.04 C 358.61 279.63 356.01 280.71 354.17 281.88 C 355.86 283.13 358.08 284.40 357.90 286.87 C 358.74 291.78 352.78 293.57 351.91 297.96 C 349.38 305.45 355.56 312.62 353.11 320.13 C 351.38 326.19 344.84 329.20 338.96 329.25 C 326.57 329.42 314.29 326.29 301.90 327.42 C 297.20 327.74 293.03 330.77 290.94 334.94 C 288.08 340.68 286.43 346.91 284.62 353.04 C 281.53 365.11 277.34 377.09 270.23 387.42 C 267.72 383.34 271.08 379.49 273.17 376.13 C 274.31 374.01 276.70 371.67 274.98 369.19 C 275.45 368.24 275.91 367.30 276.38 366.36 C 274.17 368.99 272.08 371.72 270.17 374.58 C 266.74 375.15 265.69 378.43 265.84 381.50 C 264.52 384.22 263.15 386.92 261.75 389.60 C 258.36 392.12 257.28 396.43 258.13 400.46 C 257.20 405.58 256.21 410.72 256.12 415.95 C 255.87 416.07 255.38 416.31 255.13 416.43 C 254.54 408.45 251.84 400.84 250.03 393.10 C 246.59 382.32 245.57 370.93 241.87 360.23 C 238.21 349.02 232.15 338.81 228.13 327.75 C 230.84 331.23 232.74 335.22 234.88 339.06 C 239.95 348.63 245.03 358.34 247.74 368.88 C 251.15 380.91 252.12 393.45 255.18 405.54 C 255.98 401.23 255.28 396.84 255.25 392.51 C 255.87 392.67 257.12 393.00 257.75 393.17 L 256.39 392.22 C 256.53 391.68 256.81 390.59 256.95 390.05 C 257.76 386.72 257.79 383.28 258.31 379.91 C 259.68 369.68 263.66 360.03 268.14 350.81 C 271.64 343.66 274.69 336.28 278.56 329.31 C 278.66 329.14 278.86 328.79 278.96 328.61 C 282.17 327.14 284.29 324.00 284.09 320.41 C 288.34 314.41 293.12 308.67 298.82 303.97 C 297.48 304.62 296.14 305.27 294.79 305.90 C 290.95 306.36 288.78 309.77 286.10 312.13 C 282.53 315.32 279.82 319.31 277.35 323.38 C 276.38 324.77 276.39 326.53 276.07 328.13 C 273.81 332.76 271.25 337.23 268.95 341.84 C 267.25 344.30 265.28 346.60 262.89 348.41 C 270.09 323.52 285.91 300.59 308.18 286.94 C 316.36 281.67 326.82 281.29 335.84 284.54 C 332.20 282.49 328.27 280.70 324.01 280.68 C 314.99 280.18 306.86 284.91 299.65 289.77 C 282.37 302.76 268.07 320.36 260.99 340.95 C 257.96 349.76 256.55 359.11 256.56 368.42 C 256.50 375.21 255.56 382.04 256.34 388.81 L 256.40 390.48 C 255.96 391.27 255.51 392.05 255.04 392.84 C 255.14 380.21 253.86 367.62 253.65 355.00 C 253.10 335.46 252.40 315.93 251.19 296.43 C 251.76 293.51 252.41 290.61 252.69 287.65 C 252.78 290.84 252.82 294.04 253.10 297.23 C 254.70 294.34 254.72 290.97 255.42 287.83 C 257.30 278.36 259.87 269.02 263.07 259.91 C 266.54 249.87 270.16 239.44 277.49 231.47 C 283.81 224.44 288.94 216.20 291.23 206.95 C 293.47 199.23 294.42 189.69 302.07 185.20 C 309.91 181.28 320.01 183.62 326.83 177.26 C 327.42 178.40 328.01 179.55 328.61 180.70 C 323.12 186.42 314.91 187.09 307.98 190.04 C 300.63 193.07 297.71 201.27 296.22 208.47 C 299.66 205.27 300.73 200.38 304.00 197.01 C 308.78 191.38 316.64 190.86 322.87 187.65 C 330.79 184.22 336.83 176.77 338.20 168.21 C 339.37 159.93 338.74 151.24 335.39 143.51 C 335.46 145.44 335.58 147.38 335.71 149.31 C 334.90 153.25 334.82 157.29 334.15 161.26 C 334.30 152.94 333.78 144.43 331.24 136.47 C 328.59 131.78 324.88 127.77 321.12 123.96 C 320.35 123.90 319.58 123.84 318.83 123.77 C 317.67 119.15 312.95 117.14 309.62 114.30 C 273.46 87.50 220.85 87.50 183.52 111.99 C 183.80 110.84 184.07 109.69 184.35 108.55 C 183.85 107.96 183.35 107.37 182.85 106.78 Z" fill="#1a2c50" opacity="1.00" stroke="#1a2c50" stroke-width="0.25"/>
<path d="M 183.52 111.99 C 220.85 87.50 273.46 87.50 309.62 114.30 C 312.95 117.14 317.67 119.15 318.83 123.77 C 319.58 123.84 320.35 123.90 321.12 123.96 C 324.88 127.77 328.59 131.78 331.24 136.47 C 333.78 144.43 334.30 152.94 334.15 161.26 C 333.19 167.08 331.29 173.14 326.83 177.26 C 320.01 183.62 309.91 181.28 302.07 185.20 C 294.42 189.69 293.47 199.23 291.23 206.95 C 288.94 216.20 283.81 224.44 277.49 231.47 C 270.16 239.44 266.54 249.87 263.07 259.91 C 259.87 269.02 257.30 278.36 255.42 287.83 C 254.72 290.97 254.70 294.34 253.10 297.23 C 252.82 294.04 252.78 290.84 252.69 287.65 C 252.55 270.01 251.23 252.14 245.90 235.22 C 244.34 229.72 242.81 223.70 238.30 219.79 C 236.67 218.21 234.29 218.46 232.22 218.27 C 230.64 219.88 228.55 221.46 228.45 223.93 C 227.35 230.94 232.29 237.78 238.76 240.08 C 235.53 236.34 231.88 232.26 231.73 227.03 C 231.51 225.13 232.63 222.62 234.91 223.04 C 237.59 223.88 238.55 226.82 239.60 229.12 C 243.73 239.70 247.12 250.67 248.35 261.99 C 249.63 273.44 250.17 284.95 251.19 296.43 C 252.40 315.93 253.10 335.46 253.65 355.00 C 253.86 367.62 255.14 380.21 255.04 392.84 C 255.51 392.05 255.96 391.27 256.40 390.48 L 256.34 388.81 L 256.95 390.05 C 256.81 390.59 256.53 391.68 256.39 392.22 L 257.75 393.17 C 257.12 393.00 255.87 392.67 255.25 392.51 C 255.28 396.84 255.98 401.23 255.18 405.54 C 252.12 393.45 251.15 380.91 247.74 368.88 C 245.03 358.34 239.95 348.63 234.88 339.06 C 232.74 335.22 230.84 331.23 228.13 327.75 C 232.15 338.81 238.21 349.02 241.87 360.23 C 245.57 370.93 246.59 382.32 250.03 393.10 C 251.84 400.84 254.54 408.45 255.13 416.43 C 255.38 416.31 255.87 416.07 256.12 415.95 L 256.37 416.30 C 256.52 416.80 256.81 417.79 256.96 418.28 L 255.20 418.09 C 255.23 418.85 255.28 420.38 255.31 421.15 C 253.58 415.98 252.49 410.62 250.59 405.51 C 245.20 390.68 237.72 376.72 232.37 361.88 C 228.14 350.51 224.43 338.87 222.66 326.84 C 221.74 318.58 222.39 310.24 222.80 301.96 C 226.72 308.76 230.98 315.37 234.39 322.44 C 236.69 327.00 238.54 331.78 240.91 336.30 C 238.66 318.40 225.36 304.83 217.61 289.19 C 214.25 281.70 207.63 275.59 199.56 273.64 C 191.83 271.75 183.64 269.84 177.66 264.21 C 173.11 259.77 169.28 254.66 164.95 250.00 C 151.38 235.68 142.92 216.67 141.20 197.03 C 139.10 176.51 144.81 155.44 156.63 138.58 C 160.98 131.97 166.42 126.18 172.13 120.74 C 168.63 127.30 164.35 133.63 162.77 141.03 C 160.63 149.92 160.77 160.50 167.42 167.53 C 173.63 174.24 183.65 174.71 192.10 173.29 C 205.51 170.84 218.21 164.75 232.00 164.32 C 241.13 164.04 250.89 166.09 257.86 172.34 C 265.71 179.11 269.45 189.43 270.84 199.46 C 272.01 207.58 270.95 216.12 267.22 223.49 C 260.53 237.05 255.68 252.00 256.35 267.29 C 259.47 252.17 264.63 237.49 271.55 223.69 C 275.87 214.85 280.76 205.94 281.92 196.01 C 283.47 185.19 279.88 173.71 272.12 165.95 C 261.29 154.83 246.59 148.37 235.96 137.01 C 232.55 133.28 231.99 127.72 233.55 123.05 C 236.25 114.30 242.58 107.38 248.86 100.99 C 241.73 104.84 236.28 111.27 232.67 118.44 C 229.72 124.41 229.22 132.14 233.44 137.66 C 237.44 142.93 243.11 146.58 248.29 150.59 C 257.33 157.80 268.51 163.04 274.50 173.42 C 282.35 185.40 280.32 201.24 273.56 213.24 C 273.91 201.46 273.42 189.01 267.42 178.52 C 262.42 169.78 253.57 164.46 245.50 158.91 C 240.15 155.86 234.85 152.71 229.73 149.28 C 225.46 146.32 221.83 142.06 220.62 136.91 C 218.82 129.65 219.89 121.78 216.44 114.92 C 217.11 121.72 217.08 128.58 217.96 135.36 C 219.11 142.48 223.49 148.90 229.79 152.46 C 219.49 151.54 208.55 154.52 198.94 149.46 C 203.10 154.30 209.87 155.44 215.92 155.01 C 221.56 154.50 227.34 154.10 232.90 155.46 C 236.90 156.34 240.27 158.81 243.83 160.69 L 243.27 161.24 C 235.25 159.98 227.13 160.82 219.17 162.08 C 210.02 163.17 200.80 164.30 191.58 163.64 C 183.29 162.92 176.44 155.28 176.44 146.99 C 175.57 135.14 180.75 124.05 186.64 114.13 C 177.56 123.04 173.04 136.30 174.27 148.92 C 174.84 155.85 179.49 162.40 186.13 164.70 C 194.42 167.85 203.35 165.74 211.91 165.42 C 201.34 167.55 191.03 172.75 179.98 171.10 C 172.62 170.12 166.69 163.99 164.79 157.01 C 162.93 148.25 164.73 139.07 168.47 131.05 C 172.10 123.76 176.08 116.05 183.52 111.99 Z" fill="#feffff" opacity="1.00" stroke="#feffff" stroke-width="0.25"/>
<path d="M 232.67 118.44 C 236.28 111.27 241.73 104.84 248.86 100.99 C 242.58 107.38 236.25 114.30 233.55 123.05 C 231.99 127.72 232.55 133.28 235.96 137.01 C 246.59 148.37 261.29 154.83 272.12 165.95 C 279.88 173.71 283.47 185.19 281.92 196.01 C 280.76 205.94 275.87 214.85 271.55 223.69 C 264.63 237.49 259.47 252.17 256.35 267.29 C 255.68 252.00 260.53 237.05 267.22 223.49 C 270.95 216.12 272.01 207.58 270.84 199.46 C 269.45 189.43 265.71 179.11 257.86 172.34 C 250.89 166.09 241.13 164.04 232.00 164.32 C 218.21 164.75 205.51 170.84 192.10 173.29 C 183.65 174.71 173.63 174.24 167.42 167.53 C 160.77 160.50 160.63 149.92 162.77 141.03 C 164.35 133.63 168.63 127.30 172.13 120.74 C 166.42 126.18 160.98 131.97 156.63 138.58 C 144.81 155.44 139.10 176.51 141.20 197.03 C 142.92 216.67 151.38 235.68 164.95 250.00 C 169.28 254.66 173.11 259.77 177.66 264.21 C 183.64 269.84 191.83 271.75 199.56 273.64 C 207.63 275.59 214.25 281.70 217.61 289.19 C 225.36 304.83 238.66 318.40 240.91 336.30 C 238.54 331.78 236.69 327.00 234.39 322.44 C 230.98 315.37 226.72 308.76 222.80 301.96 C 222.39 310.24 221.74 318.58 222.66 326.84 C 224.43 338.87 228.14 350.51 232.37 361.88 C 237.72 376.72 245.20 390.68 250.59 405.51 C 252.49 410.62 253.58 415.98 255.31 421.15 C 255.28 420.38 255.23 418.85 255.20 418.09 L 256.96 418.28 C 256.81 417.79 256.52 416.80 256.37 416.30 C 258.09 412.05 258.51 407.44 259.94 403.10 C 263.57 391.24 269.18 380.11 274.98 369.19 C 276.70 371.67 274.31 374.01 273.17 376.13 C 271.08 379.49 267.72 383.34 270.23 387.42 C 268.95 391.19 266.11 394.64 264.68 398.53 C 260.42 408.95 258.01 420.02 255.68 431.00 C 253.26 422.32 251.29 413.48 247.91 405.10 C 245.84 400.27 244.03 395.32 241.78 390.57 C 233.66 373.31 226.30 355.58 221.83 336.99 C 219.22 326.56 218.82 315.66 220.19 305.01 C 220.72 301.48 220.52 297.76 217.85 295.08 C 217.06 304.48 211.83 312.56 208.40 321.11 C 202.24 334.32 200.16 349.14 192.86 361.86 C 188.36 369.18 181.78 374.83 175.29 380.32 C 172.08 382.87 168.80 385.43 165.01 387.06 C 173.31 379.72 181.58 372.21 188.45 363.47 C 198.03 350.06 199.51 333.01 206.70 318.45 C 210.23 309.92 215.70 301.54 215.42 291.99 C 213.31 283.60 205.16 277.74 196.86 276.42 C 187.42 274.76 177.86 270.92 171.67 263.30 C 168.10 258.90 163.83 255.16 159.96 251.04 C 143.73 233.27 135.16 208.92 136.21 184.92 C 137.25 153.14 156.17 123.47 182.85 106.78 C 183.35 107.37 183.85 107.96 184.35 108.55 C 184.07 109.69 183.80 110.84 183.52 111.99 C 176.08 116.05 172.10 123.76 168.47 131.05 C 164.73 139.07 162.93 148.25 164.79 157.01 C 166.69 163.99 172.62 170.12 179.98 171.10 C 191.03 172.75 201.34 167.55 211.91 165.42 C 203.35 165.74 194.42 167.85 186.13 164.70 C 179.49 162.40 174.84 155.85 174.27 148.92 C 173.04 136.30 177.56 123.04 186.64 114.13 C 180.75 124.05 175.57 135.14 176.44 146.99 C 176.44 155.28 183.29 162.92 191.58 163.64 C 200.80 164.30 210.02 163.17 219.17 162.08 C 227.13 160.82 235.25 159.98 243.27 161.24 L 243.83 160.69 C 244.25 160.25 245.09 159.36 245.50 158.91 C 253.57 164.46 262.42 169.78 267.42 178.52 C 273.42 189.01 273.91 201.46 273.56 213.24 C 280.32 201.24 282.35 185.40 274.50 173.42 C 268.51 163.04 257.33 157.80 248.29 150.59 C 243.11 146.58 237.44 142.93 233.44 137.66 C 229.22 132.14 229.72 124.41 232.67 118.44 Z" fill="#1b2a4c" opacity="1.00" stroke="#1b2a4c" stroke-width="0.25"/>
<path d="M 263.88 104.19 C 265.37 104.97 266.87 105.80 267.97 107.10 C 277.25 117.02 283.15 130.02 284.72 143.50 C 285.84 151.27 285.81 159.18 285.21 167.00 C 284.97 169.20 286.11 171.19 286.76 173.21 C 288.22 176.76 288.56 180.60 289.28 184.33 C 289.78 182.55 290.24 180.76 290.35 178.91 C 290.84 172.84 292.44 166.94 293.29 160.92 C 294.17 151.80 293.64 142.57 291.74 133.60 C 291.40 129.31 290.48 124.19 293.55 120.64 C 297.20 116.96 303.15 118.43 306.89 121.20 C 310.90 124.28 314.97 128.51 314.88 133.94 C 315.64 139.40 310.18 143.98 305.00 143.72 C 301.69 143.94 298.85 142.03 295.80 141.10 C 296.53 147.71 296.41 154.33 295.02 160.84 C 295.65 159.32 296.42 157.86 296.78 156.25 C 299.70 152.31 304.25 149.49 309.33 150.27 C 306.74 151.71 303.60 152.26 301.52 154.52 C 296.68 159.47 295.27 166.56 294.04 173.13 C 292.24 184.50 290.32 195.88 287.17 206.97 C 284.59 215.96 279.16 223.77 273.15 230.80 C 273.72 227.35 276.27 224.76 277.68 221.66 C 283.68 209.80 288.75 196.48 286.63 182.97 C 284.74 169.34 276.96 157.25 267.60 147.47 C 262.59 142.26 257.52 136.91 251.12 133.39 C 256.40 134.38 260.84 137.72 264.92 141.04 C 271.74 147.12 277.30 154.49 282.12 162.21 L 283.15 162.88 C 283.09 150.78 282.54 138.31 277.85 126.98 C 274.69 118.56 269.62 111.05 263.88 104.19 Z" fill="#182641" opacity="1.00" stroke="#182641" stroke-width="0.25"/>
<path d="M 252.16 110.16 C 256.70 107.91 263.21 110.73 264.00 115.92 C 265.79 122.14 259.35 129.03 253.00 126.66 C 245.36 124.83 244.94 112.86 252.16 110.16 Z" fill="#233052" opacity="1.00" stroke="#233052" stroke-width="0.25"/>
<path d="M 249.29 121.82 C 246.79 117.06 251.82 110.69 257.02 112.05 C 260.62 113.05 263.67 117.21 262.17 120.95 C 261.57 122.92 259.87 124.18 258.44 125.53 C 257.71 125.05 256.97 124.57 256.24 124.09 C 259.91 124.29 261.64 119.23 259.24 116.78 C 257.92 114.81 255.42 115.54 253.44 115.44 C 249.53 118.03 250.95 124.75 255.97 124.69 C 256.02 125.12 256.11 125.98 256.15 126.41 C 253.39 125.84 250.50 124.54 249.29 121.82 Z" fill="#fcffff" opacity="1.00" stroke="#fcffff" stroke-width="0.25"/>
<path d="M 216.44 114.92 C 219.89 121.78 218.82 129.65 220.62 136.91 C 221.83 142.06 225.46 146.32 229.73 149.28 C 234.85 152.71 240.15 155.86 245.50 158.91 C 245.09 159.36 244.25 160.25 243.83 160.69 C 240.27 158.81 236.90 156.34 232.90 155.46 C 227.34 154.10 221.56 154.50 215.92 155.01 C 209.87 155.44 203.10 154.30 198.94 149.46 C 208.55 154.52 219.49 151.54 229.79 152.46 C 223.49 148.90 219.11 142.48 217.96 135.36 C 217.08 128.58 217.11 121.72 216.44 114.92 Z" fill="#0c2342" opacity="1.00" stroke="#0c2342" stroke-width="0.25"/>
<path d="M 184.06 126.98 C 190.23 117.94 205.72 118.30 211.56 127.48 C 214.36 131.69 214.20 138.01 210.14 141.38 C 205.84 145.46 197.86 144.64 194.70 139.51 C 191.05 134.12 193.68 126.61 198.96 123.34 C 193.64 122.61 188.44 123.93 184.06 126.98 Z" fill="#121f3a" opacity="1.00" stroke="#121f3a" stroke-width="0.25"/>
<path d="M 296.44 121.60 C 301.89 119.98 307.00 123.59 310.17 127.72 C 311.99 130.08 313.03 133.15 312.33 136.13 C 311.03 139.86 306.73 141.90 302.96 141.26 C 300.88 140.58 298.88 139.68 296.83 138.92 C 296.48 139.47 295.80 140.57 295.45 141.12 C 294.91 134.72 291.12 126.97 296.44 121.60 Z" fill="#feffff" opacity="1.00" stroke="#feffff" stroke-width="0.25"/>
<path d="M 196.52 128.36 C 198.13 126.81 199.61 125.12 200.76 123.20 C 204.58 123.70 207.73 126.11 209.98 129.11 C 211.33 132.08 212.01 135.87 209.65 138.53 C 206.68 142.78 199.62 142.57 196.64 138.44 C 194.50 135.50 195.05 131.47 196.52 128.36 Z" fill="#fffeff" opacity="1.00" stroke="#fffeff" stroke-width="0.25"/>
<path d="M 319.18 124.83 C 319.85 124.85 320.53 124.87 321.21 124.90 C 325.47 133.60 328.20 143.51 326.17 153.19 C 324.44 159.75 319.23 165.20 312.46 166.49 C 312.38 166.28 312.21 165.88 312.13 165.67 C 318.53 162.99 323.28 156.83 324.31 149.98 C 325.22 141.37 323.60 132.33 319.18 124.83 Z" fill="#0d1c35" opacity="1.00" stroke="#0d1c35" stroke-width="0.25"/>
<path d="M 151.54 172.18 C 149.82 161.07 152.90 149.67 158.47 140.06 C 157.83 143.99 155.99 147.60 155.20 151.50 C 153.76 158.23 152.74 165.27 154.10 172.09 C 155.93 180.30 163.59 186.96 172.04 187.36 C 176.11 187.70 180.21 187.33 184.16 186.28 C 191.27 183.51 198.05 179.91 205.37 177.71 C 217.97 173.97 232.03 171.70 244.60 176.71 C 250.86 179.07 256.59 183.21 260.22 188.89 C 254.73 184.59 248.97 180.31 242.13 178.46 C 231.06 175.32 219.29 176.86 208.26 179.40 C 201.88 180.99 195.76 183.51 189.93 186.54 C 182.28 190.38 173.01 191.73 164.90 188.52 C 158.09 185.77 152.97 179.35 151.54 172.18 Z" fill="#182842" opacity="1.00" stroke="#182842" stroke-width="0.25"/>
<path d="M 335.39 143.51 C 338.74 151.24 339.37 159.93 338.20 168.21 C 336.83 176.77 330.79 184.22 322.87 187.65 C 316.64 190.86 308.78 191.38 304.00 197.01 C 300.73 200.38 299.66 205.27 296.22 208.47 C 297.71 201.27 300.63 193.07 307.98 190.04 C 314.91 187.09 323.12 186.42 328.61 180.70 C 337.03 172.77 337.05 159.96 335.71 149.31 C 335.58 147.38 335.46 145.44 335.39 143.51 Z" fill="#f7eac3" opacity="1.00" stroke="#f7eac3" stroke-width="0.25"/>
<path d="M 335.71 149.31 C 337.05 159.96 337.03 172.77 328.61 180.70 C 328.01 179.55 327.42 178.40 326.83 177.26 C 331.29 173.14 333.19 167.08 334.15 161.26 C 334.82 157.29 334.90 153.25 335.71 149.31 Z" fill="#17243a" opacity="1.00" stroke="#17243a" stroke-width="0.25"/>
<path d="M 329.88 157.86 C 330.00 158.12 330.24 158.64 330.37 158.90 C 329.33 164.03 326.17 169.07 321.05 170.89 C 315.75 172.71 309.83 172.08 304.79 174.75 C 300.89 176.24 298.46 179.76 296.19 183.05 C 297.04 177.24 301.74 172.81 307.02 170.72 C 311.88 169.34 317.17 169.96 321.81 167.78 C 325.63 165.61 328.09 161.76 329.88 157.86 Z" fill="#202e47" opacity="1.00" stroke="#202e47" stroke-width="0.25"/>
<path d="M 144.68 180.96 C 147.03 186.65 149.09 192.93 154.37 196.69 C 160.42 201.95 169.08 200.41 176.09 198.28 C 171.30 202.19 164.67 203.88 158.66 202.23 C 149.96 199.33 144.49 189.88 144.68 180.96 Z" fill="#15243b" opacity="1.00" stroke="#15243b" stroke-width="0.25"/>
<path d="M 224.97 189.72 C 228.60 188.66 232.08 186.81 235.99 187.16 C 245.85 186.67 255.46 193.64 258.34 203.04 C 260.56 209.46 259.86 216.45 258.36 222.96 C 256.56 231.05 255.28 239.29 255.30 247.60 C 255.16 247.62 254.88 247.65 254.73 247.66 C 253.79 240.82 253.45 233.88 254.09 226.99 C 254.55 219.98 256.02 212.89 254.60 205.90 C 253.74 200.62 250.24 196.16 245.99 193.09 C 241.13 189.67 234.41 189.34 229.09 191.84 C 223.09 194.36 218.56 199.43 212.38 201.60 C 206.00 204.29 198.02 203.86 192.98 209.22 C 188.97 214.08 192.83 221.57 198.56 222.75 C 203.56 224.14 208.38 221.30 212.11 218.23 C 209.82 224.83 200.82 227.55 195.01 223.88 C 191.72 221.73 188.79 218.15 189.11 213.99 C 188.77 207.98 194.50 204.09 199.58 202.44 C 207.25 200.03 215.68 197.95 221.35 191.84 C 209.33 190.86 195.78 191.81 186.27 200.08 C 180.30 204.91 176.86 212.15 170.86 216.93 C 166.74 220.33 160.49 220.90 155.89 218.14 C 150.08 214.86 146.24 208.81 144.54 202.47 C 144.71 202.42 145.05 202.31 145.22 202.26 C 148.27 208.83 153.50 215.60 161.16 216.59 C 165.90 217.33 169.87 214.05 172.91 210.85 C 178.51 204.65 183.63 197.61 191.14 193.57 C 201.69 188.86 213.63 187.83 224.97 189.72 Z" fill="#182745" opacity="1.00" stroke="#182745" stroke-width="0.25"/>
<path d="M 224.79 201.88 C 229.15 198.83 234.87 198.05 239.99 199.34 C 247.71 201.41 253.27 210.17 250.76 217.98 C 250.17 213.52 248.74 208.85 245.04 205.97 C 240.25 201.48 232.01 201.67 227.44 206.39 C 220.98 212.39 220.13 222.58 223.54 230.38 C 225.58 235.34 229.73 239.03 234.19 241.83 C 238.43 244.33 241.12 249.00 241.56 253.86 C 237.63 246.00 228.53 243.41 223.32 236.70 C 218.35 231.14 215.98 223.51 216.43 216.11 C 217.05 210.49 220.00 205.01 224.79 201.88 Z" fill="#1b2c4e" opacity="1.00" stroke="#1b2c4e" stroke-width="0.25"/>
<path d="M 318.33 201.38 C 325.26 197.59 334.88 198.36 340.01 204.79 C 336.61 203.76 333.68 201.30 329.97 201.35 C 324.86 200.68 319.93 202.69 315.79 205.51 C 311.44 208.39 305.53 209.22 302.54 213.87 C 299.40 218.23 296.28 222.65 292.52 226.51 C 288.21 230.92 284.16 235.75 281.74 241.48 C 278.05 250.07 275.01 258.93 271.35 267.53 C 268.61 273.97 265.28 280.17 263.07 286.82 C 258.89 298.75 257.91 311.50 257.82 324.05 C 257.96 329.35 257.91 334.66 257.49 339.95 C 254.36 322.43 253.83 303.99 259.51 286.92 C 262.89 277.00 268.09 267.83 271.87 258.07 C 275.71 248.32 279.02 238.00 286.08 229.99 C 290.71 224.99 295.44 220.03 299.36 214.44 C 301.29 211.68 303.43 208.83 306.68 207.56 C 310.73 205.82 314.50 203.55 318.33 201.38 Z" fill="#f5e4b8" opacity="1.00" stroke="#f5e4b8" stroke-width="0.25"/>
<path d="M 230.57 206.73 C 236.92 203.48 245.48 207.69 247.43 214.42 C 249.32 218.90 247.80 223.82 245.34 227.74 C 246.80 223.36 247.18 218.31 244.97 214.11 C 242.99 210.64 239.15 207.79 234.99 208.22 C 229.71 208.17 226.08 213.13 224.87 217.80 C 223.78 213.41 226.97 208.98 230.57 206.73 Z" fill="#0d1c35" opacity="1.00" stroke="#0d1c35" stroke-width="0.25"/>
<path d="M 319.04 217.27 C 321.86 215.50 324.29 212.02 328.01 212.41 C 331.16 212.25 333.57 214.56 335.89 216.35 L 335.49 216.58 C 335.19 216.83 334.59 217.34 334.29 217.60 C 332.64 220.01 333.04 223.61 330.32 225.32 C 328.27 227.03 325.39 227.84 322.85 226.75 C 318.63 225.74 316.28 221.07 311.69 221.05 C 312.97 219.61 315.06 219.46 316.69 218.57 C 317.04 218.99 317.72 219.82 318.06 220.24 C 319.90 223.28 323.95 224.62 327.24 223.28 C 330.04 221.60 329.65 218.05 329.42 215.27 C 326.35 216.10 323.50 217.64 320.36 218.16 C 320.03 217.94 319.37 217.49 319.04 217.27 Z" fill="#f7dc73" opacity="1.00" stroke="#f7dc73" stroke-width="0.25"/>
<path d="M 186.02 242.94 C 178.56 235.25 172.80 223.47 177.20 212.88 C 176.48 222.55 179.50 232.62 186.51 239.50 C 190.78 244.36 197.72 246.38 203.99 244.96 C 212.32 244.01 221.84 241.51 229.25 246.86 C 235.21 251.18 240.97 257.21 241.66 264.91 C 242.53 280.96 239.26 297.15 242.27 313.09 C 246.16 329.90 249.51 346.90 251.00 364.11 C 251.21 365.45 250.98 366.79 250.74 368.11 C 250.74 364.44 249.56 360.96 248.80 357.42 C 245.67 342.64 243.42 327.67 239.79 313.00 C 237.36 301.45 230.60 291.29 228.55 279.65 C 227.44 273.33 230.50 265.90 225.96 260.51 C 223.37 265.32 220.00 270.21 220.37 275.94 C 220.36 287.38 228.65 296.37 231.69 306.94 C 225.67 297.15 218.05 287.08 218.28 275.03 C 218.05 268.98 221.48 263.77 224.53 258.85 C 219.99 256.18 214.66 257.80 209.98 259.15 C 203.83 261.07 197.25 261.66 190.92 260.33 C 183.32 258.53 175.52 255.61 169.95 249.95 C 172.76 251.12 175.29 252.84 178.09 254.02 C 185.00 256.98 192.55 258.23 200.03 258.23 C 207.18 258.15 213.84 254.34 221.06 255.25 C 224.90 255.54 228.15 258.51 229.51 262.02 C 231.03 265.47 230.55 269.36 230.54 273.03 C 229.64 283.55 235.63 292.78 238.67 302.46 C 239.00 290.99 239.52 279.51 239.50 268.03 C 239.63 263.64 238.40 259.07 235.18 255.94 C 231.62 252.52 228.13 248.77 223.56 246.71 C 214.89 244.01 206.60 249.82 197.89 248.54 C 192.49 247.77 187.38 245.66 181.96 244.96 C 173.31 243.70 164.57 240.05 159.16 232.92 C 156.90 229.66 154.19 226.20 154.37 222.02 C 158.41 230.22 165.24 237.36 174.07 240.28 C 177.93 241.63 181.96 242.46 186.02 242.94 Z" fill="#121e3b" opacity="1.00" stroke="#121e3b" stroke-width="0.25"/>
<path d="M 320.36 218.16 C 323.50 217.64 326.35 216.10 329.42 215.27 C 329.65 218.05 330.04 221.60 327.24 223.28 C 323.95 224.62 319.90 223.28 318.06 220.24 C 318.83 219.55 319.60 218.86 320.36 218.16 Z" fill="#0d1c35" opacity="1.00" stroke="#0d1c35" stroke-width="0.25"/>
<path d="M 321.04 220.71 C 323.33 219.40 325.69 218.21 328.11 217.12 C 329.25 219.44 327.13 221.87 325.05 222.71 C 323.60 222.30 322.34 221.43 321.04 220.71 Z" fill="#152c58" opacity="1.00" stroke="#152c58" stroke-width="0.25"/>
<path d="M 334.29 217.60 C 334.59 217.34 335.19 216.83 335.49 216.58 C 336.38 216.43 339.44 216.91 338.49 218.29 C 337.20 218.86 335.06 219.04 334.29 217.60 Z" fill="#f7eac3" opacity="1.00" stroke="#f7eac3" stroke-width="0.25"/>
<path d="M 232.22 218.27 C 234.29 218.46 236.67 218.21 238.30 219.79 C 242.81 223.70 244.34 229.72 245.90 235.22 C 251.23 252.14 252.55 270.01 252.69 287.65 C 252.41 290.61 251.76 293.51 251.19 296.43 C 250.17 284.95 249.63 273.44 248.35 261.99 C 247.12 250.67 243.73 239.70 239.60 229.12 C 238.55 226.82 237.59 223.88 234.91 223.04 C 232.63 222.62 231.51 225.13 231.73 227.03 C 231.88 232.26 235.53 236.34 238.76 240.08 C 232.29 237.78 227.35 230.94 228.45 223.93 C 228.55 221.46 230.64 219.88 232.22 218.27 Z" fill="#192847" opacity="1.00" stroke="#192847" stroke-width="0.25"/>
<path d="M 301.77 234.86 C 308.42 232.98 316.09 232.14 322.31 235.78 C 328.46 238.59 333.21 245.08 332.72 252.00 C 332.49 253.59 333.37 256.13 331.05 256.42 C 332.45 249.59 329.75 241.85 323.55 238.30 C 316.03 233.32 306.07 234.03 298.29 238.03 C 297.92 235.91 300.36 235.49 301.77 234.86 Z" fill="#373a34" opacity="1.00" stroke="#373a34" stroke-width="0.25"/>
<path d="M 298.29 238.03 C 306.07 234.03 316.03 233.32 323.55 238.30 C 329.75 241.85 332.45 249.59 331.05 256.42 C 328.54 265.32 320.73 271.09 313.41 275.98 C 307.26 279.85 300.62 282.85 294.31 286.44 C 293.94 286.63 293.21 287.02 292.84 287.21 C 292.87 286.76 292.92 285.84 292.94 285.39 C 293.47 284.80 294.00 284.23 294.55 283.67 C 296.74 282.36 298.96 281.13 301.22 279.94 C 303.70 278.64 306.15 277.26 308.56 275.82 C 314.31 272.52 319.86 268.71 324.26 263.69 C 325.72 262.05 326.87 260.16 327.85 258.20 C 329.50 254.90 329.44 251.04 328.40 247.57 L 328.17 247.12 C 326.45 243.75 323.84 240.81 320.45 239.07 C 319.45 238.51 318.36 238.13 317.28 237.83 C 309.13 235.85 300.45 238.35 294.16 243.74 C 289.52 247.61 286.21 252.85 283.95 258.40 C 282.85 260.97 281.90 263.61 280.99 266.25 C 276.85 278.38 271.72 290.18 268.19 302.51 C 267.45 304.98 266.87 307.48 266.27 309.99 C 266.09 310.65 265.89 311.32 265.68 311.98 C 265.34 303.91 267.77 296.09 270.21 288.50 C 272.77 281.46 275.55 274.50 277.87 267.37 C 280.91 259.13 283.95 250.45 290.17 244.01 C 291.25 243.31 292.24 242.47 293.09 241.51 C 294.55 239.98 296.44 238.98 298.29 238.03 Z" fill="#f3e280" opacity="1.00" stroke="#f3e280" stroke-width="0.25"/>
<path d="M 294.16 243.74 C 300.45 238.35 309.13 235.85 317.28 237.83 C 314.28 238.19 311.25 238.43 308.43 239.59 C 307.31 239.71 306.20 239.81 305.09 239.96 C 300.96 239.95 298.23 244.15 294.16 243.74 Z" fill="#0d1c35" opacity="1.00" stroke="#0d1c35" stroke-width="0.25"/>
<path d="M 305.09 239.96 C 306.20 239.81 307.31 239.71 308.43 239.59 C 313.22 240.96 318.57 244.50 318.65 250.00 C 319.11 254.41 315.72 258.18 311.87 259.80 C 313.39 257.32 316.02 255.26 315.79 252.07 C 316.45 248.28 314.29 245.02 311.62 242.61 C 309.50 241.58 307.33 240.66 305.09 239.96 Z" fill="#f9ffff" opacity="1.00" stroke="#f9ffff" stroke-width="0.25"/>
<path d="M 320.45 239.07 C 323.84 240.81 326.45 243.75 328.17 247.12 C 324.68 245.75 322.67 241.94 320.45 239.07 Z" fill="#0d1c35" opacity="1.00" stroke="#0d1c35" stroke-width="0.25"/>
<path d="M 290.17 244.01 C 288.72 242.37 291.65 240.06 293.09 241.51 C 292.24 242.47 291.25 243.31 290.17 244.01 Z" fill="#55533a" opacity="1.00" stroke="#55533a" stroke-width="0.25"/>
<path d="M 328.40 247.57 C 329.44 251.04 329.50 254.90 327.85 258.20 C 328.22 254.67 328.44 251.12 328.40 247.57 Z" fill="#696133" opacity="1.00" stroke="#696133" stroke-width="0.25"/>
<path d="M 291.77 256.73 C 292.43 254.67 293.41 252.74 294.61 250.94 C 294.52 251.51 294.33 252.64 294.24 253.20 C 291.92 260.73 297.80 267.52 296.72 275.03 C 296.60 277.16 295.73 279.13 294.90 281.06 C 293.65 282.70 292.42 284.35 291.21 286.02 C 291.42 286.41 291.85 287.20 292.06 287.60 C 290.30 288.82 288.65 290.19 287.11 291.68 C 286.84 291.19 286.29 290.22 286.02 289.73 C 286.63 288.81 287.23 287.87 287.86 286.96 C 288.06 286.67 288.47 286.09 288.67 285.80 C 291.06 282.63 293.75 279.25 293.77 275.07 C 294.63 268.78 290.75 263.02 291.77 256.73 Z" fill="#f3e280" opacity="1.00" stroke="#f3e280" stroke-width="0.25"/>
<path d="M 296.72 275.03 C 297.80 267.52 291.92 260.73 294.24 253.20 C 294.70 262.16 300.75 270.63 297.33 279.72 C 298.62 279.79 299.92 279.86 301.22 279.94 C 298.96 281.13 296.74 282.36 294.55 283.67 C 294.64 283.01 294.81 281.71 294.90 281.06 C 295.73 279.13 296.60 277.16 296.72 275.03 Z" fill="#0d1c35" opacity="1.00" stroke="#0d1c35" stroke-width="0.25"/>
<path d="M 292.15 276.03 C 293.68 269.61 287.52 262.62 291.77 256.73 C 290.75 263.02 294.63 268.78 293.77 275.07 C 293.75 279.25 291.06 282.63 288.67 285.80 C 288.66 282.14 292.15 279.71 292.15 276.03 Z" fill="#0d1c35" opacity="1.00" stroke="#0d1c35" stroke-width="0.25"/>
<path d="M 280.99 266.25 C 281.90 263.61 282.85 260.97 283.95 258.40 C 284.34 261.05 283.81 265.18 280.99 266.25 Z" fill="#17243a" opacity="1.00" stroke="#17243a" stroke-width="0.25"/>
<path d="M 319.33 267.35 C 320.54 265.60 321.88 263.70 324.26 263.69 C 319.86 268.71 314.31 272.52 308.56 275.82 C 308.41 274.05 309.85 273.69 311.26 273.38 C 313.59 270.98 315.80 267.93 319.33 267.35 Z" fill="#0d1c35" opacity="1.00" stroke="#0d1c35" stroke-width="0.25"/>
<path d="M 272.32 278.22 C 273.99 274.24 274.62 269.76 277.13 266.18 L 277.87 267.37 C 275.55 274.50 272.77 281.46 270.21 288.50 C 269.25 284.92 271.55 281.62 272.32 278.22 Z" fill="#0d1c35" opacity="1.00" stroke="#0d1c35" stroke-width="0.25"/>
<path d="M 294.31 286.44 C 300.62 282.85 307.26 279.85 313.41 275.98 C 312.04 279.68 307.61 280.82 304.48 282.70 C 301.11 283.97 298.17 287.31 294.31 286.44 Z" fill="#0d1c35" opacity="1.00" stroke="#0d1c35" stroke-width="0.25"/>
<path d="M 291.21 286.02 C 292.42 284.35 293.65 282.70 294.90 281.06 C 294.81 281.71 294.64 283.01 294.55 283.67 C 294.00 284.23 293.47 284.80 292.94 285.39 C 292.92 285.84 292.87 286.76 292.84 287.21 L 292.80 288.15 L 292.06 287.60 C 291.85 287.20 291.42 286.41 291.21 286.02 Z" fill="#ceb152" opacity="1.00" stroke="#ceb152" stroke-width="0.25"/>
<path d="M 299.65 289.77 C 306.86 284.91 314.99 280.18 324.01 280.68 C 328.27 280.70 332.20 282.49 335.84 284.54 C 326.82 281.29 316.36 281.67 308.18 286.94 C 285.91 300.59 270.09 323.52 262.89 348.41 C 261.36 353.22 260.00 358.09 259.31 363.10 C 258.67 365.00 257.70 366.77 256.56 368.42 C 256.55 359.11 257.96 349.76 260.99 340.95 C 268.07 320.36 282.37 302.76 299.65 289.77 Z" fill="#fcffff" opacity="1.00" stroke="#fcffff" stroke-width="0.25"/>
<path d="M 349.90 283.10 C 350.82 282.57 351.74 282.03 352.66 281.48 C 352.53 281.90 352.26 282.74 352.13 283.16 C 349.41 285.08 346.56 286.86 343.50 288.18 C 334.39 292.76 323.31 290.17 314.64 295.81 C 310.56 298.51 307.35 302.27 304.05 305.83 C 304.51 304.67 304.97 303.51 305.54 302.40 C 307.76 298.76 310.47 295.29 314.17 293.06 C 319.16 289.82 325.25 289.34 331.00 288.66 C 337.58 288.11 344.10 286.28 349.90 283.10 Z" fill="#f3e280" opacity="1.00" stroke="#f3e280" stroke-width="0.25"/>
<path d="M 337.29 286.29 C 341.71 284.83 346.11 283.27 350.52 281.78 L 349.90 283.10 C 344.10 286.28 337.58 288.11 331.00 288.66 C 325.25 289.34 319.16 289.82 314.17 293.06 C 310.47 295.29 307.76 298.76 305.54 302.40 C 305.43 301.79 305.20 300.58 305.09 299.97 C 307.28 296.58 310.35 293.76 313.66 291.47 C 317.22 288.83 321.83 288.92 325.93 287.72 C 329.65 286.70 333.66 287.73 337.29 286.29 Z" fill="#0d1c35" opacity="1.00" stroke="#0d1c35" stroke-width="0.25"/>
<path d="M 282.13 293.67 C 282.61 290.50 285.54 288.75 287.86 286.96 C 287.23 287.87 286.63 288.81 286.02 289.73 C 284.79 291.11 283.45 292.39 282.13 293.67 Z" fill="#7b744b" opacity="1.00" stroke="#7b744b" stroke-width="0.25"/>
<path d="M 287.11 291.68 C 288.65 290.19 290.30 288.82 292.06 287.60 L 292.80 288.15 C 290.66 290.85 288.16 293.24 285.71 295.65 C 284.68 296.69 283.46 297.67 281.88 297.62 C 283.49 295.53 285.21 293.52 287.11 291.68 Z" fill="#3a3937" opacity="1.00" stroke="#3a3937" stroke-width="0.25"/>
<path d="M 314.64 295.81 C 323.31 290.17 334.39 292.76 343.50 288.18 C 343.01 289.33 342.17 290.05 340.96 290.34 C 337.10 291.66 333.12 292.88 328.99 292.82 C 324.04 292.91 319.55 295.38 314.64 295.81 Z" fill="#0d1c35" opacity="1.00" stroke="#0d1c35" stroke-width="0.25"/>
<path d="M 282.13 293.67 C 283.45 292.39 284.79 291.11 286.02 289.73 C 286.29 290.22 286.84 291.19 287.11 291.68 C 285.21 293.52 283.49 295.53 281.88 297.62 L 281.86 297.64 C 278.61 301.62 275.40 305.66 272.78 310.10 C 269.23 315.79 266.67 322.01 263.53 327.93 C 263.61 327.38 263.76 326.27 263.84 325.71 C 264.81 320.36 267.48 315.56 269.91 310.77 C 270.31 310.01 270.73 309.26 271.17 308.53 C 273.12 305.23 275.34 302.11 277.59 299.02 C 278.98 297.13 280.46 295.31 282.13 293.67 Z" fill="#f5e4b8" opacity="1.00" stroke="#f5e4b8" stroke-width="0.25"/>
<path d="M 272.78 310.10 C 275.40 305.66 278.61 301.62 281.86 297.64 C 282.07 299.10 281.79 300.55 280.78 301.66 C 278.69 304.32 276.80 307.14 274.72 309.81 C 274.24 309.88 273.27 310.03 272.78 310.10 Z" fill="#17243a" opacity="1.00" stroke="#17243a" stroke-width="0.25"/>
<path d="M 270.75 306.02 C 273.27 303.90 273.97 299.52 277.59 299.02 C 275.34 302.11 273.12 305.23 271.17 308.53 C 271.06 307.90 270.85 306.64 270.75 306.02 Z" fill="#182745" opacity="1.00" stroke="#182745" stroke-width="0.25"/>
<path d="M 268.19 302.51 C 269.49 304.85 268.85 308.77 266.27 309.99 C 266.87 307.48 267.45 304.98 268.19 302.51 Z" fill="#323a37" opacity="1.00" stroke="#323a37" stroke-width="0.25"/>
<path d="M 294.79 305.90 C 296.14 305.27 297.48 304.62 298.82 303.97 C 293.12 308.67 288.34 314.41 284.09 320.41 C 282.17 323.01 280.44 325.74 278.96 328.61 C 278.86 328.79 278.66 329.14 278.56 329.31 C 278.11 328.76 277.22 327.66 276.77 327.11 C 281.70 319.18 287.66 311.94 294.79 305.90 Z" fill="#f5e4b8" opacity="1.00" stroke="#f5e4b8" stroke-width="0.25"/>
<path d="M 286.10 312.13 C 288.78 309.77 290.95 306.36 294.79 305.90 C 287.66 311.94 281.70 319.18 276.77 327.11 L 276.07 328.13 C 276.39 326.53 276.38 324.77 277.35 323.38 C 279.82 319.31 282.53 315.32 286.10 312.13 Z" fill="#0d1c35" opacity="1.00" stroke="#0d1c35" stroke-width="0.25"/>
<path d="M 265.41 316.34 C 266.66 314.35 266.85 310.69 269.91 310.77 C 267.48 315.56 264.81 320.36 263.84 325.71 C 261.25 322.65 264.35 319.30 265.41 316.34 Z" fill="#0d1c35" opacity="1.00" stroke="#0d1c35" stroke-width="0.25"/>
<path d="M 278.96 328.61 C 280.44 325.74 282.17 323.01 284.09 320.41 C 284.29 324.00 282.17 327.14 278.96 328.61 Z" fill="#182745" opacity="1.00" stroke="#182745" stroke-width="0.25"/>
<path d="M 200.01 355.89 C 205.94 345.47 213.51 335.74 216.69 323.97 C 216.88 330.98 214.08 337.71 210.28 343.48 C 207.09 347.80 203.99 352.24 200.01 355.89 Z" fill="#0d1c35" opacity="1.00" stroke="#0d1c35" stroke-width="0.25"/>
<path d="M 276.07 328.13 L 276.77 327.11 C 277.22 327.66 278.11 328.76 278.56 329.31 C 274.69 336.28 271.64 343.66 268.14 350.81 C 263.66 360.03 259.68 369.68 258.31 379.91 C 257.79 383.28 257.76 386.72 256.95 390.05 L 256.34 388.81 C 255.56 382.04 256.50 375.21 256.56 368.42 C 257.70 366.77 258.67 365.00 259.31 363.10 C 262.03 355.79 265.60 348.86 268.95 341.84 C 271.25 337.23 273.81 332.76 276.07 328.13 Z" fill="#f3dd76" opacity="1.00" stroke="#f3dd76" stroke-width="0.25"/>
<path d="M 262.89 348.41 C 265.28 346.60 267.25 344.30 268.95 341.84 C 265.60 348.86 262.03 355.79 259.31 363.10 C 260.00 358.09 261.36 353.22 262.89 348.41 Z" fill="#0d1c35" opacity="1.00" stroke="#0d1c35" stroke-width="0.25"/>
<path d="M 270.17 374.58 C 272.08 371.72 274.17 368.99 276.38 366.36 C 275.91 367.30 275.45 368.24 274.98 369.19 C 269.18 380.11 263.57 391.24 259.94 403.10 C 258.51 407.44 258.09 412.05 256.37 416.30 L 256.12 415.95 C 256.21 410.72 257.20 405.58 258.13 400.46 C 259.34 396.84 260.60 393.24 261.75 389.60 C 263.15 386.92 264.52 384.22 265.84 381.50 C 267.26 379.18 268.70 376.87 270.17 374.58 Z" fill="#f3e280" opacity="1.00" stroke="#f3e280" stroke-width="0.25"/>
<path d="M 265.84 381.50 C 265.69 378.43 266.74 375.15 270.17 374.58 C 268.70 376.87 267.26 379.18 265.84 381.50 Z" fill="#0d1c35" opacity="1.00" stroke="#0d1c35" stroke-width="0.25"/>
<path d="M 258.13 400.46 C 257.28 396.43 258.36 392.12 261.75 389.60 C 260.60 393.24 259.34 396.84 258.13 400.46 Z" fill="#182641" opacity="1.00" stroke="#182641" stroke-width="0.25"/>
</svg>